<svg width="64" height="64" viewBox="0 0 64 64" fill="none" xmlns="http://www.w3.org/2000/svg">
<circle cx="32" cy="32" r="32" fill="url(#paint0_linear_724_90250)"/>
<path d="M26.6719 33.2196C26.6719 33.0918 26.6719 32.964 26.6719 32.8362C26.667 29.3581 26.6638 25.8809 26.6566 22.4028C26.6558 22.0329 26.6221 21.663 26.6823 21.2956C26.8847 20.0589 28.0252 19.0954 29.2999 19.0858C30.263 19.0787 31.2268 19.0739 32.1898 19.0723C36.6187 19.0636 41.0484 19.0581 45.4772 19.0477C47.0162 19.0438 48.5543 19.0239 50.0932 19.0223C51.7534 19.02 52.9719 20.1804 52.9655 21.744C52.959 23.3195 51.7526 24.4633 50.094 24.4673C49.1037 24.4696 48.1141 24.4784 47.1238 24.4768C46.6346 24.476 46.5977 24.499 46.6001 24.9895C46.6162 29.2597 46.6354 33.5307 46.6507 37.8009C46.6555 39.0971 46.6539 40.3932 46.6507 41.6886C46.6467 43.2379 45.4869 44.4483 44.0001 44.4626C42.4186 44.4777 41.2202 43.3062 41.2098 41.702C41.1937 39.2558 41.1986 36.8096 41.1929 34.3633C41.1857 31.2424 41.1777 28.1223 41.1688 25.0014C41.1672 24.518 41.1215 24.4792 40.6444 24.4815C37.9681 24.4942 35.2926 24.5061 32.6163 24.518C32.0846 24.5204 32.0919 24.5379 32.0999 25.0522C32.1192 26.242 32.1248 27.4326 32.1103 28.6224C32.1063 28.974 32.2284 29.0827 32.5746 29.0764C33.6975 29.0557 34.8211 29.02 35.9448 29.07C37.3617 29.1327 38.4821 30.3217 38.4878 31.7822C38.4934 33.1989 37.3609 34.4308 35.9673 34.4737C34.8573 34.5078 33.7465 34.4879 32.6356 34.4943C32.1601 34.4967 32.1176 34.5522 32.12 35.0245C32.1312 37.2588 32.1481 39.4939 32.1409 41.7282C32.1368 43.0355 31.3971 44.0237 30.2011 44.3943C29.0726 44.7444 27.9136 44.3324 27.1441 43.2815C24.0944 39.1145 21.051 34.9435 18.0053 30.7741C17.9001 30.6297 17.79 30.4884 17.6109 30.2503C17.6109 30.8059 17.6101 31.2353 17.6109 31.6647C17.6182 35.0102 17.639 38.3549 17.6302 41.7005C17.6246 43.8975 15.4929 45.2309 13.6238 44.215C12.7259 43.7268 12.2471 42.9498 12.1893 41.9306C12.1837 41.8251 12.1813 41.7195 12.1813 41.6132C12.1716 37.1969 12.162 32.7807 12.1524 28.3636C12.1476 26.2349 12.1411 24.1061 12.1379 21.9766C12.1363 20.6701 12.8335 19.6335 13.9564 19.2652C15.1957 18.858 16.3226 19.239 17.1491 20.3677C20.2157 24.5554 23.2767 28.7462 26.3409 32.9354C26.418 33.041 26.5008 33.1434 26.5803 33.2474C26.6116 33.2378 26.6421 33.2283 26.6719 33.2196Z" fill="#FDFDFD"/>
<defs>
<linearGradient id="paint0_linear_724_90250" x1="0" y1="0" x2="67.5955" y2="66.1573" gradientUnits="userSpaceOnUse">
<stop stop-color="#F539F8"/>
<stop offset="0.416763" stop-color="#C342F9"/>
<stop offset="1" stop-color="#5356FB"/>
</linearGradient>
</defs>
</svg>
