<svg width="19" height="20" viewBox="0 0 19 20" fill="none" xmlns="http://www.w3.org/2000/svg">
<path d="M0.996216 5.25652C1.16837 4.84164 1.3992 4.46301 1.6496 4.10049C3.11678 1.96969 5.08476 0.612258 7.58093 0.165151C10.4801 -0.354459 13.0819 0.354467 15.3081 2.38457C15.3902 2.4611 15.3942 2.50138 15.3159 2.58194C14.5099 3.40365 13.7079 4.22939 12.9097 5.05915C12.8237 5.14777 12.7845 5.13166 12.7024 5.05915C11.6108 4.06021 10.3236 3.60908 8.87596 3.742C6.50499 3.96354 4.93609 5.30083 4.05578 7.54442C4.04013 7.58067 4.02448 7.61289 4.01274 7.64915C3.77017 7.45178 3.52368 7.25843 3.27719 7.06509C2.79596 6.68243 2.31864 6.29172 1.83349 5.91309C1.5557 5.69155 1.29356 5.44987 0.996216 5.25652Z" fill="#C34131"/>
<path d="M15.3198 16.7282C14.8464 17.1874 14.3143 17.5701 13.7431 17.8883C12.6633 18.4925 11.5052 18.8268 10.2806 18.9476C8.90336 19.0886 7.55355 18.9597 6.24287 18.4884C4.09492 17.711 2.43602 16.3133 1.2701 14.2953C1.16447 14.1141 1.05492 13.9409 0.988403 13.7395C1.02362 13.7153 1.06274 13.6992 1.09404 13.671C1.62614 13.248 2.15824 12.8211 2.69425 12.3981C3.13244 12.0477 3.57064 11.7013 4.00884 11.3509C4.20447 11.8866 4.43921 12.4022 4.77178 12.8694C5.71468 14.1986 6.96277 15.0244 8.55124 15.2338C9.88148 15.407 11.153 15.1694 12.3072 14.4242C12.3346 14.4081 12.3659 14.392 12.3933 14.3759C12.5772 14.5169 12.765 14.6538 12.945 14.7988C13.567 15.2943 14.1891 15.7897 14.8073 16.2932C14.9873 16.4382 15.179 16.551 15.3198 16.7282Z" fill="#61A053"/>
<path d="M14.2634 11.4717C14.2634 11.4596 14.2595 11.4475 14.2595 11.4395C14.2165 11.367 14.1461 11.3871 14.0835 11.3871C12.5458 11.3871 11.0082 11.3871 9.47064 11.3871C9.28284 11.3871 9.28284 11.3871 9.28284 11.1978C9.28284 10.1264 9.28284 9.05491 9.28284 7.97944C9.28284 7.78207 9.28284 7.77804 9.47846 7.77804C12.2211 7.77804 14.9599 7.77804 17.7025 7.77804C17.726 7.77804 17.7495 7.77804 17.7729 7.77804C17.8551 7.76998 17.8903 7.81429 17.902 7.89082C17.9138 7.99555 17.9177 8.10028 17.9373 8.20098C18.0116 8.57155 18.0272 8.95018 18.039 9.32478C18.0507 9.73967 18.0664 10.1545 18.0155 10.5654C17.9764 10.8796 17.9686 11.1978 17.906 11.508C17.8551 11.7698 17.8121 12.0356 17.7455 12.2974C17.6869 12.5311 17.6399 12.7647 17.5617 12.9943C17.4599 13.2923 17.3582 13.5904 17.2252 13.8764C17.1117 14.1221 17.0061 14.3678 16.877 14.6055C16.8183 14.7142 16.7244 14.8149 16.7361 14.9559C16.5718 15.0244 16.5405 15.1855 16.4896 15.3305C16.3214 15.4393 16.2392 15.6165 16.1532 15.7897C16.1375 15.7978 16.114 15.7978 16.1023 15.8098C15.9145 16.0072 15.7541 16.2288 15.5467 16.406C15.4998 16.4463 15.4293 16.4664 15.4059 16.5389C15.3824 16.6195 15.3354 16.6114 15.2807 16.5711C15.0968 16.4302 14.9051 16.2972 14.729 16.1442C14.2517 15.7333 13.747 15.3668 13.2657 14.968C13.0584 14.7948 12.8432 14.6377 12.6319 14.4725C12.5576 14.4162 12.5145 14.3678 12.6241 14.2832C12.9175 14.0577 13.1797 13.7999 13.4066 13.5058C13.4653 13.4293 13.5474 13.3608 13.5396 13.248C13.5983 13.244 13.6296 13.2037 13.6531 13.1554C13.7626 12.9379 13.9074 12.7486 13.9974 12.5149C14.1226 12.1927 14.2243 11.8664 14.3026 11.5321C14.3104 11.4918 14.2947 11.4798 14.2634 11.4717Z" fill="#557BE8"/>
<path d="M4.01274 11.3549C3.57454 11.7053 3.13634 12.0517 2.69814 12.4022C2.16604 12.8251 1.63395 13.2521 1.09794 13.675C1.06664 13.6992 1.02751 13.7193 0.9923 13.7435C0.839713 13.5179 0.753639 13.2601 0.655827 13.0104C0.299791 12.1041 0.0963414 11.1616 0.0259167 10.1868C-0.0718954 8.84547 0.108079 7.54845 0.550189 6.28367C0.663652 5.96143 0.792764 5.64322 0.941438 5.33709C0.957088 5.30889 0.964913 5.27264 0.996213 5.25653C1.29356 5.44987 1.5557 5.69155 1.83348 5.90906C2.31863 6.28769 2.79595 6.67841 3.27719 7.06107C3.51976 7.25441 3.76625 7.44775 4.01274 7.6411C3.88754 8.10432 3.77408 8.57156 3.74278 9.05492C3.69191 9.7719 3.76234 10.4728 3.96579 11.1575C3.98535 11.226 3.99709 11.2905 4.01274 11.3549Z" fill="#DFB32B"/>
<path d="M16.7322 14.964C16.7205 14.823 16.8144 14.7223 16.8731 14.6135C17.0022 14.3759 17.1078 14.1261 17.2213 13.8845C17.3543 13.5985 17.46 13.3004 17.5578 13.0023C17.6321 12.7768 17.6791 12.5391 17.7417 12.3055C17.8082 12.0437 17.8512 11.7778 17.9021 11.516C17.9647 11.2059 17.9725 10.8876 18.0116 10.5735C18.0625 10.1626 18.0468 9.74773 18.0351 9.33284C18.0234 8.95824 18.0077 8.57961 17.9334 8.20903C17.9138 8.10834 17.9099 8.00361 17.8982 7.89888C17.8903 7.81832 17.8512 7.77804 17.769 7.7861C17.7456 7.79012 17.7221 7.7861 17.6986 7.7861C14.956 7.7861 12.2172 7.7861 9.47458 7.7861C9.27896 7.7861 9.27896 7.7861 9.27896 7.9875C9.27896 9.05894 9.27896 10.1304 9.27896 11.2059C9.27896 11.3952 9.27896 11.3952 9.46676 11.3952C11.0044 11.3952 12.542 11.3952 14.0796 11.3952C14.1422 11.3952 14.2126 11.371 14.2556 11.4475C13.4497 11.4475 12.6437 11.4435 11.8377 11.4435C11.0122 11.4435 10.1906 11.4395 9.36503 11.4475C9.25548 11.4475 9.22418 11.4193 9.22418 11.3025C9.22809 10.1546 9.22809 9.00658 9.22418 7.85457C9.22418 7.74582 9.25548 7.71762 9.35721 7.71762C12.1585 7.72165 14.9599 7.72165 17.7612 7.71762C17.8629 7.71762 17.9255 7.72971 17.9451 7.86263C18.1916 9.46979 18.1368 11.0649 17.7182 12.6358C17.5069 13.4333 17.1939 14.1906 16.7792 14.9035C16.7714 14.9237 16.7518 14.9398 16.7322 14.964Z" fill="#6282CA"/>
<path d="M13.5397 13.248C13.5475 13.3608 13.4653 13.4293 13.4066 13.5058C13.1797 13.7999 12.9176 14.0577 12.6241 14.2832C12.5146 14.3678 12.5576 14.4162 12.632 14.4726C12.8432 14.6377 13.0623 14.7988 13.2658 14.968C13.747 15.3708 14.2556 15.7373 14.7291 16.1442C14.9051 16.2972 15.0968 16.4302 15.2807 16.5711C15.3355 16.6154 15.3824 16.6195 15.4059 16.5389C15.4294 16.4664 15.4998 16.4463 15.5468 16.406C15.7541 16.2288 15.9145 16.0072 16.1023 15.8098C16.1141 15.7978 16.1336 15.7978 16.1532 15.7897C16.1297 15.8944 16.0476 15.9549 15.985 16.0274C15.7776 16.2731 15.5624 16.5107 15.3198 16.7242C15.179 16.547 14.9834 16.4302 14.8112 16.2932C14.193 15.7897 13.571 15.2943 12.9489 14.7988C12.7689 14.6538 12.5811 14.5169 12.3972 14.3759C12.8354 14.0617 13.2149 13.6831 13.5397 13.248Z" fill="#6282CA"/>
<path d="M14.2634 11.4717C14.2947 11.4757 14.3104 11.4918 14.3025 11.5281C14.2243 11.8624 14.1226 12.1927 13.9974 12.5109C13.9074 12.7405 13.7626 12.9339 13.6531 13.1514C13.6296 13.1997 13.5983 13.24 13.5396 13.244C13.7626 12.8654 13.9856 12.4867 14.1069 12.0598C14.1617 11.8664 14.2086 11.6691 14.2634 11.4717Z" fill="#6282CA"/>
<path d="M16.1532 15.7978C16.2393 15.6245 16.3175 15.4473 16.4897 15.3386C16.4036 15.5118 16.298 15.6689 16.1532 15.7978Z" fill="#6282CA"/>
<path d="M16.4857 15.3386C16.5366 15.1936 16.5679 15.0324 16.7322 14.964C16.6657 15.0969 16.5953 15.2338 16.4857 15.3386Z" fill="#6282CA"/>
</svg>
