<svg width="235" height="75" viewBox="0 0 235 75" fill="none" xmlns="http://www.w3.org/2000/svg">
<path d="M88.2871 24.0429H93.9935L104.461 42.0429H104.752L104.461 36.8679V24.0429H109.332V50.8928H104.17L93.1212 31.8804H92.8304L93.1212 37.0553V50.8928H88.2871V24.0429Z" fill="white"/>
<path d="M114.553 24.0429H131.054V28.8429H119.46V35.3679H129.891V40.1679H119.46V50.8928H114.553V24.0429Z" fill="white"/>
<path d="M140.345 50.8928V28.8429H133.076V24.0429H152.521V28.8429H145.252V50.8928H140.345Z" fill="white"/>
<path d="M156.011 24.0429H160.845L168.804 38.2554H169.095L177.055 24.0429H181.926V50.8928H177.055V37.6553L177.346 33.1553H177.055L170.44 45.1929H167.496L160.845 33.1553H160.554L160.845 37.6553V50.8928H156.011V24.0429Z" fill="white"/>
<path d="M194.771 24.0429H200.368L210.146 50.8928H204.73L202.586 44.4803H192.554L190.41 50.8928H184.994L194.771 24.0429ZM200.986 39.8303L198.66 33.1178L197.715 29.8553H197.424L196.479 33.1178L194.153 39.8303H200.986Z" fill="white"/>
<path d="M219.698 36.8679L211.811 24.0429H217.881L222.933 32.8178H223.224L228.276 24.0429H234.346L226.459 36.8679L235 50.8928H228.894L223.224 41.2178H222.933L217.263 50.8928H211.157L219.698 36.8679Z" fill="white"/>
<path d="M75.2889 37.5C75.2889 58.2107 58.4349 75 37.6444 75C16.854 75 0 58.2107 0 37.5C0 16.7893 16.854 0 37.6444 0C58.4349 0 75.2889 16.7893 75.2889 37.5Z" fill="white"/>
<path d="M31.3761 38.9292C31.3761 38.7795 31.3761 38.6297 31.3761 38.48C31.3704 34.4041 31.3666 30.3292 31.3581 26.2533C31.3572 25.8199 31.3175 25.3864 31.3884 24.9558C31.6265 23.5066 32.9682 22.3774 34.4677 22.3662C35.6006 22.3579 36.7345 22.3523 37.8674 22.3504C43.0774 22.3402 48.2884 22.3337 53.4985 22.3216C55.3089 22.317 57.1183 22.2937 58.9287 22.2918C60.8818 22.289 62.3152 23.6489 62.3076 25.4813C62.3 27.3276 60.8808 28.6679 58.9297 28.6726C57.7646 28.6754 56.6005 28.6856 55.4355 28.6838C54.8601 28.6828 54.8166 28.7098 54.8194 29.2846C54.8383 34.2888 54.861 39.2938 54.879 44.298C54.8846 45.8169 54.8827 47.3358 54.879 48.8538C54.8742 50.6694 53.5098 52.0879 51.7609 52.1046C49.9004 52.1223 48.4907 50.7494 48.4784 48.8696C48.4595 46.0029 48.4651 43.1362 48.4585 40.2696C48.45 36.6123 48.4406 32.9559 48.4302 29.2986C48.4283 28.7321 48.3744 28.6865 47.8132 28.6893C44.6648 28.7042 41.5175 28.7182 38.3691 28.7321C37.7436 28.7349 37.7521 28.7554 37.7616 29.3581C37.7842 30.7524 37.7909 32.1476 37.7739 33.5419C37.7691 33.9539 37.9127 34.0813 38.32 34.0739C39.6409 34.0497 40.9628 34.0079 42.2847 34.0665C43.9515 34.1399 45.2696 35.5333 45.2762 37.2447C45.2828 38.905 43.9505 40.3486 42.3112 40.3988C41.0053 40.4388 39.6986 40.4156 38.3918 40.423C37.8324 40.4258 37.7824 40.4909 37.7852 41.0444C37.7984 43.6627 37.8183 46.282 37.8098 48.9003C37.805 50.4323 36.9348 51.5903 35.5279 52.0246C34.2003 52.4348 32.8369 51.9521 31.9317 50.7206C28.344 45.8374 24.7638 40.9495 21.1809 36.0635C21.0571 35.8942 20.9276 35.7286 20.7169 35.4496C20.7169 36.1007 20.716 36.6039 20.7169 37.1071C20.7254 41.0276 20.75 44.9472 20.7396 48.8678C20.733 51.4424 18.2253 53.005 16.0266 51.8144C14.9702 51.2424 14.407 50.3318 14.339 49.1375C14.3324 49.0138 14.3296 48.8901 14.3296 48.7654C14.3182 43.5901 14.3069 38.4149 14.2955 33.2386C14.2899 30.744 14.2823 28.2494 14.2785 25.7538C14.2766 24.2228 15.0968 23.008 16.4177 22.5765C17.8757 22.0993 19.2013 22.5458 20.1736 23.8684C23.7812 28.7758 27.3821 33.687 30.9868 38.5962C31.0775 38.7199 31.1748 38.8399 31.2684 38.9618C31.3052 38.9506 31.3411 38.9395 31.3761 38.9292Z" fill="url(#paint0_linear_6_39)"/>
<defs>
<linearGradient id="paint0_linear_6_39" x1="0" y1="0" x2="46.7065" y2="143.233" gradientUnits="userSpaceOnUse">
<stop stop-color="#F539F8"/>
<stop offset="0.416763" stop-color="#C342F9"/>
<stop offset="1" stop-color="#5356FB"/>
</linearGradient>
</defs>
</svg>
