<svg width="182" height="56" viewBox="0 0 182 56" fill="none" xmlns="http://www.w3.org/2000/svg">
<path d="M68.016 17.952H72.412L80.476 31.392H80.7L80.476 27.528V17.952H84.228V38H80.252L71.74 23.804H71.516L71.74 27.668V38H68.016V17.952ZM88.2504 17.952H100.962V21.536H92.0304V26.408H100.066V29.992H92.0304V38H88.2504V17.952ZM108.12 38V21.536H102.52V17.952H117.5V21.536H111.9V38H108.12ZM120.188 17.952H123.912L130.044 28.564H130.268L136.4 17.952H140.152V38H136.4V28.116L136.624 24.756H136.4L131.304 33.744H129.036L123.912 24.756H123.688L123.912 28.116V38H120.188V17.952ZM150.048 17.952H154.36L161.892 38H157.72L156.068 33.212H148.34L146.688 38H142.516L150.048 17.952ZM154.836 29.74L153.044 24.728L152.316 22.292H152.092L151.364 24.728L149.572 29.74H154.836ZM169.251 27.528L163.175 17.952H167.851L171.743 24.504H171.967L175.859 17.952H180.535L174.459 27.528L181.039 38H176.335L171.967 30.776H171.743L167.375 38H162.671L169.251 27.528Z" fill="#374557"/>
<ellipse cx="29" cy="28" rx="29" ry="28" fill="url(#paint0_linear_159_67593)"/>
<path d="M24.1714 29.0671C24.1714 28.9553 24.1714 28.8435 24.1714 28.7317C24.167 25.6884 24.1641 22.6457 24.1576 19.6024C24.1568 19.2788 24.1263 18.9551 24.1808 18.6336C24.3643 17.5516 25.3979 16.7084 26.5531 16.7001C27.4258 16.6938 28.2993 16.6897 29.1721 16.6883C33.1857 16.6806 37.2001 16.6758 41.2138 16.6668C42.6084 16.6633 44.0023 16.6459 45.397 16.6445C46.9016 16.6425 48.0058 17.6578 48 19.026C47.9942 20.4046 46.9008 21.4054 45.3977 21.4088C44.5002 21.4109 43.6035 21.4186 42.7059 21.4172C42.2627 21.4165 42.2292 21.4366 42.2314 21.8658C42.2459 25.6022 42.2634 29.3394 42.2772 33.0758C42.2816 34.2099 42.2801 35.344 42.2772 36.4775C42.2736 37.8331 41.2225 38.8923 39.8751 38.9048C38.4419 38.918 37.3559 37.8929 37.3464 36.4893C37.3319 34.3488 37.3362 32.2084 37.3311 30.0679C37.3246 27.3371 37.3173 24.607 37.3093 21.8762C37.3078 21.4533 37.2663 21.4192 36.834 21.4213C34.4086 21.4324 31.984 21.4429 29.5586 21.4533C29.0767 21.4554 29.0833 21.4706 29.0905 21.9207C29.108 22.9617 29.1131 24.0035 29.1 25.0446C29.0964 25.3522 29.207 25.4474 29.5207 25.4418C30.5383 25.4238 31.5567 25.3925 32.575 25.4363C33.859 25.4911 34.8745 26.5315 34.8795 27.8094C34.8846 29.0491 33.8583 30.1269 32.5954 30.1644C31.5894 30.1943 30.5827 30.1769 29.5761 30.1825C29.1451 30.1846 29.1066 30.2332 29.1087 30.6464C29.1189 32.6014 29.1342 34.5572 29.1277 36.5122C29.124 37.656 28.4536 38.5207 27.3698 38.845C26.3471 39.1513 25.2967 38.7909 24.5994 37.8713C21.8355 34.2252 19.0775 30.5756 16.3173 26.9274C16.222 26.801 16.1222 26.6773 15.9599 26.469C15.9599 26.9551 15.9592 27.3309 15.9599 27.7066C15.9665 30.6339 15.9854 33.5606 15.9774 36.4879C15.9723 38.4103 14.0404 39.577 12.3466 38.6881C11.5328 38.261 11.099 37.581 11.0466 36.6893C11.0415 36.5969 11.0393 36.5046 11.0393 36.4115C11.0306 32.5473 11.0218 28.6831 11.0131 24.8181C11.0087 22.9555 11.0029 21.0928 11 19.2295C10.9985 18.0863 11.6304 17.1793 12.648 16.8571C13.7711 16.5008 14.7924 16.8341 15.5414 17.8217C18.3205 21.4859 21.0945 25.1529 23.8715 28.8185C23.9414 28.9109 24.0163 29.0004 24.0884 29.0914C24.1168 29.0831 24.1445 29.0748 24.1714 29.0671Z" fill="#FDFDFD"/>
<defs>
<linearGradient id="paint0_linear_159_67593" x1="0" y1="0" x2="59.1543" y2="59.9634" gradientUnits="userSpaceOnUse">
<stop stop-color="#F539F8"/>
<stop offset="0.416763" stop-color="#C342F9"/>
<stop offset="1" stop-color="#5356FB"/>
</linearGradient>
</defs>
</svg>
