<svg width="568" height="436" viewBox="0 0 568 436" fill="none" xmlns="http://www.w3.org/2000/svg">
<rect y="0.00012207" width="568" height="436" rx="8" fill="#5356FB"/>
<g opacity="0.09">
<path opacity="0.58" d="M-2.34293e-05 0.000290263L-2.36998e-06 373.766C34.8829 399.565 69.9041 417.424 105.302 415.717C249.583 408.752 290.189 107.406 438.452 53.7809C479.95 38.7715 522.248 57.1748 565 87.2609L565 0.000213623L-2.34293e-05 0.000290263Z" fill="white"/>
<path opacity="0.82" d="M3.05176e-05 436L393.417 436C396.14 415.924 396.846 395.977 394.881 376.207C377.132 197.532 170.752 155.022 89.7893 4.1536e-05L5.95177e-06 5.37155e-05L3.05176e-05 436Z" fill="white"/>
</g>
</svg>
