<svg width="828" height="823" viewBox="0 0 828 823" fill="none" xmlns="http://www.w3.org/2000/svg">
<rect width="828" height="818" rx="12" fill="white"/>
<mask id="mask0_9_18214" style="mask-type:alpha" maskUnits="userSpaceOnUse" x="0" y="0" width="786" height="823">
<rect width="786" height="823" rx="12" fill="white"/>
</mask>
<g mask="url(#mask0_9_18214)">
<path d="M425.724 96.3604C422.394 97.6146 420.71 99.4568 419.535 103.18C421.611 106.316 423.569 108.315 426.272 109.295C429.484 106.826 432.264 106.12 437.16 105.336C432.343 102.632 429.444 100.75 425.724 96.3604Z" fill="url(#paint0_linear_9_18214)"/>
<path d="M641.075 735.312C634.143 734.763 630.148 733.861 623.724 731C622.275 734.136 621.609 737.036 622.236 740.211C626.348 742.524 631.988 744.248 639.744 745.777C638.294 740.956 638.373 738.251 641.075 735.312Z" fill="url(#paint1_linear_9_18214)"/>
<path d="M618.346 334.906C620.343 341.295 619.599 345.488 617.523 351.446C628.373 350.192 639.144 347.683 643.452 345.057C643.021 339.805 641.454 335.533 638.517 329.928C633.66 332.985 627.942 333.847 618.346 334.906Z" fill="url(#paint2_linear_9_18214)"/>
<path d="M648.701 247.499C649.563 254.084 648.114 258.043 645.059 263.53C655.908 264.157 666.835 263.569 671.496 261.727C671.966 256.553 671.183 252.085 669.264 246.088C664.015 248.244 658.297 248.126 648.701 247.499Z" fill="url(#paint3_linear_9_18214)"/>
<path d="M54.3809 63.7494C56.4567 63.8278 58.2191 64.4158 60.1383 66.4931C63.6242 60.5746 65.0734 56.3414 66.8751 50.0309C63.7809 47.5224 61.5092 46.856 59.8251 46.5425C59.5117 53.5585 57.7101 57.7133 54.3809 63.7494Z" fill="url(#paint4_linear_9_18214)"/>
<path d="M57.5726 565.839C54.9876 565.173 52.6768 563.487 49.2693 558C47.1543 559.842 45.8617 562.037 45 565.408C48.0942 569.132 50.2484 571.091 54.5176 573.051C54.7135 570.19 55.5751 568.583 57.5726 565.839Z" fill="url(#paint5_linear_9_18214)"/>
<path d="M124.098 241.385C113.836 242.404 107.648 244.128 99.7363 247.578C102.87 253.692 105.964 256.946 109.528 259.336C113.797 256.122 117.949 255.574 124.411 255.299C122.061 249.851 122.218 246.48 124.098 241.385Z" fill="url(#paint6_linear_9_18214)"/>
<path d="M335.325 85.5812C333.366 83.6214 332.074 81.5048 330.781 78.3691C326.12 83.6214 322.752 86.9138 318.326 89.8927C318.796 93.5379 319.932 95.2233 321.93 97.3007C325.259 95.2233 330.233 90.951 335.325 85.5812Z" fill="url(#paint7_linear_9_18214)"/>
<path d="M452.2 267.999C447.892 266.313 445.542 264.98 442.017 261.962C440.489 263.687 439.51 265.412 439.314 267.528C441.469 269.802 444.719 271.957 449.341 274.427C449.38 271.017 449.929 269.331 452.2 267.999Z" fill="url(#paint8_linear_9_18214)"/>
<path d="M603.032 395.385C601.779 399.108 600.76 401.147 598.293 404.243C599.781 405.458 601.309 406.242 603.11 406.32C604.951 404.4 606.635 401.539 608.555 397.541C605.695 397.658 604.246 397.266 603.032 395.385Z" fill="url(#paint9_linear_9_18214)"/>
<path d="M780.771 240.326C775.366 238.288 772.976 235.544 770.039 230.958C765.104 238.954 761.07 247.577 760.521 251.889C764.281 254.398 768.002 255.613 773.368 256.593C773.917 251.693 776.345 247.382 780.771 240.326Z" fill="url(#paint10_linear_9_18214)"/>
<path d="M752.414 682.729C753.785 687.355 755.352 689.902 759.464 693.508C763.028 688.648 766.044 686.492 770 685.042C769.06 680.613 767.65 677.791 764.987 673.714C761.227 677.712 757.897 679.907 752.414 682.729Z" fill="url(#paint11_linear_9_18214)"/>
<path d="M377 754.908C382.444 756.163 385.538 756.202 390.826 753.301C390.748 744.012 391.374 738.446 393.176 729.51C389.886 730.019 387.458 729.666 385.499 729C383.737 739.348 381.387 745.462 377 754.908Z" fill="url(#paint12_linear_9_18214)"/>
<path d="M505.607 753.93C506.978 751.578 508.74 749.853 512.305 748.912C507.565 741.23 503.57 736.958 497.343 731C492.525 733.038 490.371 735.312 489 737.036C496.951 741.74 500.672 746.365 505.607 753.93Z" fill="url(#paint13_linear_9_18214)"/>
<path d="M483.299 209.832C482.163 212.497 482.672 214.927 484.435 218.533C490.388 216.456 494.109 215.868 500.101 216.26C498.966 213.555 499.083 211.4 500.062 207.167C493.952 206.853 489.291 207.794 483.299 209.832Z" fill="url(#paint14_linear_9_18214)"/>
<path d="M709.37 175.379C704.513 182.748 702.281 187.843 700.322 195.016C706.08 196.192 709.918 195.917 713.443 194.82C713.639 190.234 715.48 187.177 718.77 182.709C713.874 181.297 711.759 179.377 709.37 175.379Z" fill="url(#paint15_linear_9_18214)"/>
<path d="M101 483.799C107.619 486.935 111.183 489.326 116.432 494.539C119.017 491.991 120.779 489.365 121.367 486.033C118.194 482.192 113.298 478.429 106.248 474C105.818 479.291 104.76 481.957 101 483.799Z" fill="url(#paint16_linear_9_18214)"/>
<path d="M504.605 317.542C506.877 317.699 508.287 318.365 509.815 320.639C511.264 318.013 511.616 315.935 512.008 312.094C510.755 310.369 509.58 309.899 507.151 309.703C506.799 312.996 506.329 315.308 504.605 317.542Z" fill="url(#paint17_linear_9_18214)"/>
<path d="M619.286 105.375C617.993 104.631 617.053 103.651 616.544 101.691C612.314 104.278 609.964 106.473 606.674 109.883C607.81 112.548 609.024 113.724 609.964 114.469C612.588 110.118 615.134 108.08 619.286 105.375Z" fill="url(#paint18_linear_9_18214)"/>
<path d="M163.54 93.3031C168.945 87.1886 172.078 84.4057 178.619 82.1323C176.896 79.3886 176.23 77.4288 176.7 75.3906C169.493 77.3504 165.146 80.3685 158.84 86.3263C159.819 89.2267 161.425 91.3825 163.54 93.3031Z" fill="url(#paint19_linear_9_18214)"/>
<path d="M592.34 81.897C590.852 83.2296 590.499 84.7583 589.99 87.2668C595.552 88.1291 601.153 90.6768 607.419 94.2437C607.929 92.2447 608.712 91.108 610.357 89.5402C604.012 85.3854 600.056 83.5824 592.34 81.897Z" fill="url(#paint20_linear_9_18214)"/>
<path d="M785.471 440.97C786.137 445.399 788.8 448.182 794.009 451.474C800.119 443.91 804.545 440.147 812.731 435.757C809.049 433.131 807.443 430.23 805.328 423.841C797.064 428.388 791.659 433.444 785.471 440.97Z" fill="url(#paint21_linear_9_18214)"/>
<path d="M239.088 754.173C235.289 750.841 230.863 747.549 225.066 747C221.619 749.43 219.113 750.88 215 752.37C218.329 754.094 219.269 756.525 219.582 761.855C224.948 758.21 230.941 756.446 239.088 754.173Z" fill="url(#paint22_linear_9_18214)"/>
<path d="M527.284 60.2215C526.814 57.9481 527.009 56.4586 528.772 54.3029C525.834 53.6365 523.719 53.8717 519.92 54.5772C518.589 56.3019 518.471 57.5169 518.98 59.9079C522.27 59.3983 524.659 59.2024 527.284 60.2215Z" fill="url(#paint23_linear_9_18214)"/>
<path d="M701.771 30.9422C707.177 31.4125 709.918 32.0005 713.678 34.5874C714.462 32.5884 715.245 31.4517 716.498 30.903C712.582 27.8065 709.292 26.709 703.612 25.6899C702.476 27.3362 701.967 29.0216 701.771 30.9422Z" fill="url(#paint24_linear_9_18214)"/>
<path d="M592.692 522.34C597.51 520.968 602.915 521.596 613.686 527.357C615.37 522.34 615.488 517.519 613.725 511.169C605.108 507.995 599.742 506.819 590.891 507.642C593.241 512.541 593.319 515.912 592.692 522.34Z" fill="url(#paint25_linear_9_18214)"/>
<path d="M27.9437 402.793C32.6045 398.874 34.6804 396.208 35.6204 389.702C27.4737 383.626 23.0477 379.472 16.4677 372.024C14.7444 375.238 12.8644 377.12 10.9844 378.374C18.8177 386.644 22.5778 392.759 27.9437 402.793Z" fill="url(#paint26_linear_9_18214)"/>
</g>
<defs>
<linearGradient id="paint0_linear_9_18214" x1="431.467" y1="99.8933" x2="422.705" y2="109.799" gradientUnits="userSpaceOnUse">
<stop stop-color="#FF5C5C"/>
<stop offset="0.3013" stop-color="#F44444"/>
<stop offset="0.935" stop-color="#D60707"/>
<stop offset="1" stop-color="#D30000"/>
</linearGradient>
<linearGradient id="paint1_linear_9_18214" x1="632.783" y1="732.817" x2="629.771" y2="745.667" gradientUnits="userSpaceOnUse">
<stop stop-color="#FF5C5C"/>
<stop offset="0.3013" stop-color="#F44444"/>
<stop offset="0.935" stop-color="#D60707"/>
<stop offset="1" stop-color="#D30000"/>
</linearGradient>
<linearGradient id="paint2_linear_9_18214" x1="627.185" y1="330.991" x2="631.606" y2="353.397" gradientUnits="userSpaceOnUse">
<stop stop-color="#FF5C5C"/>
<stop offset="0.3013" stop-color="#F44444"/>
<stop offset="0.935" stop-color="#D60707"/>
<stop offset="1" stop-color="#D30000"/>
</linearGradient>
<linearGradient id="paint3_linear_9_18214" x1="658.033" y1="245.201" x2="658.529" y2="267.861" gradientUnits="userSpaceOnUse">
<stop stop-color="#FF5C5C"/>
<stop offset="0.3013" stop-color="#F44444"/>
<stop offset="0.935" stop-color="#D60707"/>
<stop offset="1" stop-color="#D30000"/>
</linearGradient>
<linearGradient id="paint4_linear_9_18214" x1="56.56" y1="55.1406" x2="66.4662" y2="58.7444" gradientUnits="userSpaceOnUse">
<stop stop-color="#FF5C5C"/>
<stop offset="0.3013" stop-color="#F44444"/>
<stop offset="0.935" stop-color="#D60707"/>
<stop offset="1" stop-color="#D30000"/>
</linearGradient>
<linearGradient id="paint5_linear_9_18214" x1="55.4117" y1="560.903" x2="47.294" y2="571.1" gradientUnits="userSpaceOnUse">
<stop stop-color="#FF5C5C"/>
<stop offset="0.3013" stop-color="#F44444"/>
<stop offset="0.935" stop-color="#D60707"/>
<stop offset="1" stop-color="#D30000"/>
</linearGradient>
<linearGradient id="paint6_linear_9_18214" x1="110.756" y1="241.113" x2="116.585" y2="258.447" gradientUnits="userSpaceOnUse">
<stop stop-color="#4D8EFF"/>
<stop offset="0.4282" stop-color="#3F76FF"/>
<stop offset="1" stop-color="#2850FF"/>
</linearGradient>
<linearGradient id="paint7_linear_9_18214" x1="321.522" y1="82.1215" x2="330.328" y2="92.516" gradientUnits="userSpaceOnUse">
<stop stop-color="#4D8EFF"/>
<stop offset="0.4282" stop-color="#3F76FF"/>
<stop offset="1" stop-color="#2850FF"/>
</linearGradient>
<linearGradient id="paint8_linear_9_18214" x1="447.429" y1="264.814" x2="443.056" y2="272.391" gradientUnits="userSpaceOnUse">
<stop stop-color="#4D8EFF"/>
<stop offset="0.4282" stop-color="#3F76FF"/>
<stop offset="1" stop-color="#2850FF"/>
</linearGradient>
<linearGradient id="paint9_linear_9_18214" x1="600.531" y1="399.568" x2="607.123" y2="402.968" gradientUnits="userSpaceOnUse">
<stop stop-color="#4D8EFF"/>
<stop offset="0.4282" stop-color="#3F76FF"/>
<stop offset="1" stop-color="#2850FF"/>
</linearGradient>
<linearGradient id="paint10_linear_9_18214" x1="778.691" y1="248.386" x2="761.206" y2="239.452" gradientUnits="userSpaceOnUse">
<stop stop-color="#4D8EFF"/>
<stop offset="0.4282" stop-color="#3F76FF"/>
<stop offset="1" stop-color="#2850FF"/>
</linearGradient>
<linearGradient id="paint11_linear_9_18214" x1="758.098" y1="678.498" x2="766.747" y2="690.757" gradientUnits="userSpaceOnUse">
<stop stop-color="#4D8EFF"/>
<stop offset="0.4282" stop-color="#3F76FF"/>
<stop offset="1" stop-color="#2850FF"/>
</linearGradient>
<linearGradient id="paint12_linear_9_18214" x1="392.928" y1="742.883" x2="377.639" y2="742.033" gradientUnits="userSpaceOnUse">
<stop stop-color="#4D8EFF"/>
<stop offset="0.4282" stop-color="#3F76FF"/>
<stop offset="1" stop-color="#2850FF"/>
</linearGradient>
<linearGradient id="paint13_linear_9_18214" x1="496.954" y1="746.138" x2="507.214" y2="736.859" gradientUnits="userSpaceOnUse">
<stop stop-color="#FC9512"/>
<stop offset="0.00696701" stop-color="#FC9612"/>
<stop offset="0.68" stop-color="#FED319"/>
<stop offset="1" stop-color="#FFEB1C"/>
</linearGradient>
<linearGradient id="paint14_linear_9_18214" x1="492.829" y1="219.097" x2="490.657" y2="205.8" gradientUnits="userSpaceOnUse">
<stop stop-color="#FF3EB9"/>
<stop offset="0.0433" stop-color="#FF44BC"/>
<stop offset="0.7006" stop-color="#FF98E3"/>
<stop offset="1" stop-color="#FFB9F2"/>
</linearGradient>
<linearGradient id="paint15_linear_9_18214" x1="701.96" y1="184.116" x2="716.662" y2="189.603" gradientUnits="userSpaceOnUse">
<stop stop-color="#FF3EB9"/>
<stop offset="0.0433" stop-color="#FF44BC"/>
<stop offset="0.7006" stop-color="#FF98E3"/>
<stop offset="1" stop-color="#FFB9F2"/>
</linearGradient>
<linearGradient id="paint16_linear_9_18214" x1="108.207" y1="489.36" x2="115.981" y2="477.854" gradientUnits="userSpaceOnUse">
<stop stop-color="#FF3EB9"/>
<stop offset="0.0433" stop-color="#FF44BC"/>
<stop offset="0.7006" stop-color="#FF98E3"/>
<stop offset="1" stop-color="#FFB9F2"/>
</linearGradient>
<linearGradient id="paint17_linear_9_18214" x1="505.548" y1="313.884" x2="512.871" y2="316.529" gradientUnits="userSpaceOnUse">
<stop stop-color="#FF3EB9"/>
<stop offset="0.0433" stop-color="#FF44BC"/>
<stop offset="0.7006" stop-color="#FF98E3"/>
<stop offset="1" stop-color="#FFB9F2"/>
</linearGradient>
<linearGradient id="paint18_linear_9_18214" x1="615.003" y1="110.112" x2="609.924" y2="104.464" gradientUnits="userSpaceOnUse">
<stop stop-color="#FF3EB9"/>
<stop offset="0.0433" stop-color="#FF44BC"/>
<stop offset="0.7006" stop-color="#FF98E3"/>
<stop offset="1" stop-color="#FFB9F2"/>
</linearGradient>
<linearGradient id="paint19_linear_9_18214" x1="165.613" y1="78.3595" x2="173.708" y2="89.8244" gradientUnits="userSpaceOnUse">
<stop stop-color="#FF3EB9"/>
<stop offset="0.0433" stop-color="#FF44BC"/>
<stop offset="0.7006" stop-color="#FF98E3"/>
<stop offset="1" stop-color="#FFB9F2"/>
</linearGradient>
<linearGradient id="paint20_linear_9_18214" x1="602.599" y1="83.1639" x2="597.848" y2="91.6758" gradientUnits="userSpaceOnUse">
<stop stop-color="#FF3EB9"/>
<stop offset="0.0433" stop-color="#FF44BC"/>
<stop offset="0.7006" stop-color="#FF98E3"/>
<stop offset="1" stop-color="#FFB9F2"/>
</linearGradient>
<linearGradient id="paint21_linear_9_18214" x1="805.495" y1="445.368" x2="791.837" y2="429.7" gradientUnits="userSpaceOnUse">
<stop stop-color="#00EE98"/>
<stop offset="0.2798" stop-color="#00D685"/>
<stop offset="0.8679" stop-color="#009955"/>
<stop offset="1" stop-color="#008A49"/>
</linearGradient>
<linearGradient id="paint22_linear_9_18214" x1="229.896" y1="758.953" x2="222.353" y2="745.792" gradientUnits="userSpaceOnUse">
<stop stop-color="#00EE98"/>
<stop offset="0.2798" stop-color="#00D685"/>
<stop offset="0.8679" stop-color="#009955"/>
<stop offset="1" stop-color="#008A49"/>
</linearGradient>
<linearGradient id="paint23_linear_9_18214" x1="523.483" y1="60.3564" x2="523.973" y2="52.5484" gradientUnits="userSpaceOnUse">
<stop stop-color="#00EE98"/>
<stop offset="0.2798" stop-color="#00D685"/>
<stop offset="0.8679" stop-color="#009955"/>
<stop offset="1" stop-color="#008A49"/>
</linearGradient>
<linearGradient id="paint24_linear_9_18214" x1="710.571" y1="26.1279" x2="707.632" y2="34.9739" gradientUnits="userSpaceOnUse">
<stop stop-color="#00EE98"/>
<stop offset="0.2798" stop-color="#00D685"/>
<stop offset="0.8679" stop-color="#009955"/>
<stop offset="1" stop-color="#008A49"/>
</linearGradient>
<linearGradient id="paint25_linear_9_18214" x1="600.855" y1="528.371" x2="604.508" y2="503.978" gradientUnits="userSpaceOnUse">
<stop stop-color="#00EE98"/>
<stop offset="0.2798" stop-color="#00D685"/>
<stop offset="0.8679" stop-color="#009955"/>
<stop offset="1" stop-color="#008A49"/>
</linearGradient>
<linearGradient id="paint26_linear_9_18214" x1="27.948" y1="380.978" x2="17.139" y2="393.743" gradientUnits="userSpaceOnUse">
<stop stop-color="#00EE98"/>
<stop offset="0.2798" stop-color="#00D685"/>
<stop offset="0.8679" stop-color="#009955"/>
<stop offset="1" stop-color="#008A49"/>
</linearGradient>
</defs>
</svg>
